Coordinates
version=1
nRows=17
nColumns=36
inDegrees=yes

Units are S.I. units (second, meters, Newtons, ...)
If the header above contains a line with 'inDegrees', this indicates whether rotational values are in degrees (yes) or radians (no).

endheader
time	pelvis_tilt	pelvis_list	pelvis_rotation	pelvis_tx	pelvis_ty	pelvis_tz	hip_flexion_r	hip_adduction_r	hip_rotation_r	knee_angle_r	knee_angle_r_beta	ankle_angle_r	subtalar_angle_r	mtp_angle_r	hip_flexion_l	hip_adduction_l	hip_rotation_l	knee_angle_l	knee_angle_l_beta	ankle_angle_l	subtalar_angle_l	mtp_angle_l	lumbar_extension	lumbar_bending	lumbar_rotation	arm_flex_r	arm_add_r	arm_rot_r	elbow_flex_r	pro_sup_r	arm_flex_l	arm_add_l	arm_rot_l	elbow_flex_l	pro_sup_l
      1.70000000	     -4.39741648	     17.13266324	     22.51245490	      1.26832103	      0.82707023	     -0.01956873	     68.85561499	    -24.01699473	     23.24707668	     44.58842398	      0.77821481	      8.12666705	      6.74021856	     -7.49995281	     43.96790418	     22.79863640	     -8.74847064	     75.01048206	      1.30917989	     42.74607859	     -3.37734159	     -7.49995281	    -48.26483262	    -11.88382093	    -12.33890836	     65.33893410	     -1.05556047	     63.64201016	    116.77990203	     79.01662303	     75.26019765	     -7.38635987	     80.50103609	    120.17018098	     85.67005713
      1.71666670	     -3.96687360	     17.20106937	     21.91989837	      1.25712749	      0.83193596	     -0.01761797	     68.19347129	    -23.46382459	     23.41732110	     44.65946859	      0.77945477	      7.78400483	      6.11719248	     -7.49995363	     43.07498294	     22.62018506	     -8.71027929	     74.42529921	      1.29896652	     42.68092813	     -3.50189755	     -7.49995363	    -47.94142069	    -12.28320199	    -12.03664666	     65.96176700	     -0.91453638	     62.69288125	    116.62395215	     79.18609061	     75.71396761	     -7.43056456	     80.02293942	    120.37663436	     85.81979176
      1.73333330	     -3.66029779	     17.04697869	     21.51412984	      1.26339326	      0.83597012	     -0.01463624	     67.60229158	    -22.97761088	     23.33921816	     44.73172297	      0.78071585	      7.61131542	      5.63811325	     -7.49995422	     42.33668335	     22.41002750	     -8.39769257	     73.90636345	      1.28990938	     42.68026215	     -3.73020961	     -7.49995422	    -47.35145035	    -12.54320921	    -11.67598740	     65.87385934	     -0.38930586	     62.34799204	    116.19691384	     79.31265711	     75.85569617	     -7.31417978	     79.78501445	    120.25561599	     85.89742800
      1.75000000	     -3.52966376	     17.00660310	     21.22550712	      1.26785199	      0.84477029	     -0.01735819	     66.96212229	    -22.76895700	     23.09200885	     44.46626129	      0.77608267	      7.42025922	      5.31723389	     -7.49995468	     41.49115641	     22.34708489	     -8.09788553	     73.05308289	      1.27501683	     42.67770430	     -3.75243592	     -7.49995468	    -46.64328758	    -12.75868997	    -11.50867409	     64.92174851	     -0.46995587	     63.11842088	    116.56149397	     79.43911585	     75.13828207	     -7.70936329	     80.17503029	    120.50752505	     85.96466138
      1.76666670	     -2.96020096	     16.90483689	     20.66658710	      1.27408418	      0.85786105	     -0.01954158	     65.33579514	    -22.55848398	     22.44945642	     43.40522122	      0.75756402	      7.22697928	      5.04116094	     -7.49996731	     39.65882896	     22.21565590	     -7.43812332	     71.53975825	      1.24860433	     42.58985330	     -3.63380628	     -7.49996731	    -46.45770700	    -12.67330337	    -11.06999367	     64.40244812	     -0.13636004	     63.34199300	    116.91849904	     83.91156181	     73.28948356	     -8.66317358	     79.59027223	    121.48014025	     89.86629528
      1.78333330	     -2.23903429	     16.89589449	     19.85306159	      1.27829036	      0.86937758	     -0.02273998	     63.42536818	    -22.35455703	     21.75796086	     42.05067005	      0.73392265	      7.30087923	      5.31540704	     -7.49996846	     37.36074980	     22.19875158	     -6.70328588	     69.52500890	      1.21344032	     42.16362169	     -3.67153458	     -7.49996846	    -46.10907139	    -12.95256480	    -10.61760891	     62.62953763	     -0.41736830	     63.79214362	    116.86142820	     84.13204683	     71.33079082	     -8.19025119	     78.98283593	    120.46582284	     90.02374853
      1.80000000	     -2.06707024	     16.72642068	     19.18127362	      1.27972003	      0.87243541	     -0.02251488	     62.29951011	    -22.02595050	     21.31462829	     41.01734320	      0.71588769	      7.26576974	      5.50368804	     -7.49996871	     35.83915675	     22.08462485	     -6.24119629	     67.71233246	      1.18180315	     41.74982471	     -3.59271879	     -7.49996871	    -44.80989822	    -13.46511532	    -10.44760305	     61.52001385	     -0.42232754	     64.49203442	    117.31810536	     84.25489856	     70.71509364	     -8.04778890	     78.89404063	    120.72120449	     90.05387618
      1.81666670	     -0.62708361	     16.50846881	     18.29867962	      1.27910297	      0.88281540	     -0.02215586	     59.46582098	    -21.61614137	     20.20098223	     39.65163457	      0.69205158	      7.21320161	      5.75033026	     -7.49997032	     32.88393469	     21.68652091	     -5.36766669	     65.57830142	      1.14455728	     41.25618149	     -3.62759648	     -7.49997032	    -45.06242869	    -13.31467533	     -9.55336683	     61.42014981	     -0.87861251	     65.07828771	    118.25812208	     84.89029969	     69.74083994	     -8.05963106	     77.79010176	    120.38203126	     90.36946292
      1.83333330	      0.21954846	     16.16995992	     17.45891369	      1.28521888	      0.89284491	     -0.02397141	     57.26896128	    -21.15591764	     19.23377926	     38.31317569	      0.66869106	      7.18072667	      6.08505377	     -7.49997113	     30.48565113	     21.30341316	     -4.60291074	     63.30630506	      1.10490346	     40.72112138	     -3.54440677	     -7.49997113	    -44.38534460	    -13.42944759	     -8.66613778	     59.98137450	     -1.27779974	     65.00030228	    118.69697878	     85.33976338	     67.20140061	     -8.00637051	     76.19604476	    120.30648636	     90.53187580
      1.85000000	      0.32945074	     15.47512841	     16.89158947	      1.29085386	      0.89844195	     -0.02657493	     55.76425078	    -20.60595867	     18.10324634	     36.99656627	      0.64571189	      6.94852976	      6.27220676	     -7.49997440	     28.77374255	     20.79911208	     -3.72270682	     61.00754783	      1.06478258	     40.32617210	     -3.13019465	     -7.49997440	    -42.40809766	    -13.29437689	     -7.69818522	     57.99759021	     -1.57019107	     65.78161348	    119.01619131	     83.69739121	     65.10816125	     -8.22745713	     75.49909495	    120.21306414	     88.54050622
      1.86666670	      1.07289529	     15.17632180	     16.03002293	      1.28776038	      0.90471474	     -0.02269683	     53.87641251	    -19.94882291	     17.29907746	     35.88410670	      0.62629581	      6.98790145	      6.78053785	     -7.49997475	     26.45759160	     20.28952333	     -3.28227660	     58.54193424	      1.02174950	     39.54959466	     -3.35740626	     -7.49997475	    -41.65252808	    -13.53391984	     -7.15105262	     57.37913532	     -1.62473020	     65.08235145	    119.67301389	     84.11445485	     64.41703831	     -8.36595043	     74.65557218	    120.53122177	     88.80064311
      1.88333330	      2.53663573	     14.63247109	     15.31410020	      1.29200113	      0.91725057	     -0.02674466	     50.85986283	    -19.37094078	     15.69508143	     34.39854185	      0.60036781	      7.08755572	      7.16938728	     -7.49998198	     23.19240396	     19.57969237	     -2.21196888	     55.84711471	      0.97471603	     38.98578023	     -3.21412684	     -7.49998198	    -41.63901862	    -12.99388270	     -6.35035896	     56.82818492	     -2.19326499	     63.99517704	    120.03118643	     91.28518144	     64.44431579	     -7.26229490	     74.01733817	    119.41309193	     93.81238131
      1.90000000	      2.94395644	     13.88919391	     14.71706996	      1.29456993	      0.92577240	     -0.02684611	     49.07833771	    -18.60687392	     14.33239451	     33.38579816	      0.58269210	      6.97954527	      7.47854021	     -7.49998252	     21.05861884	     18.81646449	     -1.43762439	     53.17653746	      0.92810566	     38.32695700	     -3.09327456	     -7.49998252	    -40.34938121	    -12.51903554	     -5.29765450	     55.85536954	     -2.38447655	     65.05272201	    119.99029760	     91.52612013	     63.09660180	     -7.04294139	     75.21218512	    119.80740729	     94.02311705
      1.91666670	      2.80822137	     13.04102723	     14.06493951	      1.30041109	      0.93090071	     -0.02383093	     48.23569548	    -17.51763485	     13.57516000	     32.99596518	      0.57588823	      7.08089519	      7.36297989	     -7.49998266	     19.53030631	     17.88274405	     -1.01738125	     50.52644117	      0.88185276	     37.61409572	     -2.82596156	     -7.49998266	    -38.49404601	    -12.42602715	     -4.24481194	     55.06036077	     -2.16869913	     65.11684781	    120.22155129	     91.58837247	     61.32025122	     -7.11507399	     75.92394110	    120.21589179	     94.10388026
      1.93333330	      2.94868453	     12.07533482	     13.53605470	      1.29746509	      0.93614291	     -0.02640929	     47.28516604	    -16.36301584	     12.72266963	     32.79452071	      0.57237236	      6.97290155	      7.12823957	     -7.49998284	     18.22296912	     16.77955439	     -0.76310877	     48.31079262	      0.84318240	     36.71431761	     -2.73695676	     -7.49998284	    -36.94592489	    -11.84237111	     -3.43908353	     54.65405212	     -2.33181367	     64.79158937	    120.13639802	     91.66510215	     60.47338783	     -6.66624584	     75.77184450	    120.32297327	     94.15896851
      1.95000000	      3.51036407	     10.91546518	     13.00140328	      1.30285924	      0.93974744	     -0.02459142	     45.84528548	    -14.93967271	     11.82718206	     32.62823241	      0.56947008	      7.19513908	      6.68799201	     -7.49998714	     16.54620571	     15.41498424	     -0.32097949	     46.27470365	      0.80764594	     36.10853884	     -2.69300360	     -7.49998714	    -35.75404061	    -11.03297921	     -1.98525607	     54.34873580	     -2.74843858	     63.44143910	    120.53711130	     92.85453207	     60.39603019	     -5.86561275	     75.60523856	    120.21199676	     95.06902165
      1.96666670	      3.62127474	      9.79917475	     12.54133151	      1.30515043	      0.94745605	     -0.02465848	     44.87377393	    -13.62516619	     11.06116974	     32.67858538	      0.57034891	      7.53089975	      6.43816106	     -7.49998746	     15.24982099	     14.15834489	      0.00354298	     44.15995857	      0.77073667	     35.36768874	     -2.62509489	     -7.49998746	    -34.17140126	    -10.18098616	     -1.06428161	     53.79466949	     -3.08451805	     63.16103039	    120.16010048	     92.83770362	     59.32684704	     -5.97414223	     75.18804072	    119.52641075	     95.16421545
